<svg id="Calque_1" data-name="Calque 1" xmlns="http://www.w3.org/2000/svg" viewBox="0 0 1258.99 842.76"><defs><style>.cls-1{fill:#b0d1d9;}.cls-2{fill:#006873;}.cls-3{fill:#fff;}.cls-4,.cls-5{fill:none;stroke-width:1.05px;}.cls-4{stroke:#fff;}.cls-5{stroke:#006873;}</style></defs><title>logo</title><circle class="cls-1" cx="426.5" cy="421.38" r="421.38"/><path class="cls-2" d="M1214.64,457.06c12.5-15,33.91-15.3,44,0Zm-12,16.11c0,37.58,45.42,48.53,62.78,25.84L1259.3,494c-17.8,20.59-56.52,3-48.16-29.7h55.92C1267.06,430.07,1202.6,428,1202.6,473.17ZM1156.13,422c-6.61,0-6.73,10.39,0,10.39S1162.76,422,1156.13,422Zm-3.89,85.89H1160V442.82h-7.77ZM1098,481.16c-.34,30.9-53.07,28.57-53.07-6.52,0-35.73,50.44-35.54,53.07-8.92Zm7.77-31.82h-7c-22-22.65-61.62-7.57-61.62,25.3,0,36.44,45.84,46.47,60.58,24.76,2.35,19.27-13.59,36.05-33.78,31.16v8.26c22.14,4,40.17-12.7,41.68-32.22C1105.84,506.6,1105.77,509.42,1105.77,449.34ZM968.42,502.73c-15,0-27.31-12.65-27.31-28.09s12.3-28.1,27.31-28.1,27.32,12.65,27.32,28.1S983.44,502.73,968.42,502.73Zm0-64.18c-19.39,0-35.08,16.63-35.08,36.09s15.7,36.08,35.08,36.08,35.08-16.62,35.08-36.08S987.8,438.55,968.42,438.55Zm-81.68,69.38h7.77V421.38h-7.77Zm-71.33-5.2c-15,0-27.31-12.65-27.31-28.09s12.3-28.1,27.31-28.1,27.32,12.65,27.32,28.1S830.43,502.73,815.41,502.73Zm0-64.18c-19.39,0-35.08,16.63-35.08,36.09s15.7,36.08,35.08,36.08,35.09-16.62,35.09-36.08S834.79,438.55,815.41,438.55Zm-81.55,7.19c0-5.55,2-4.26-7.77-4.26v66.45h7.77c0-51.56-1.43-52.73,4.27-57.52,2.2-1.6,4.79-3.07,8.67-2.27v-8C740.59,440,737,442.15,733.86,445.74ZM651,438.69c-10.74,0-19.29,2.26-24.59,8.25V421.38h-7.77v86.55h7.77V461.19c0-11.81,12.72-14.51,24.59-14.51,13.79,0,24.6,4.3,24.6,18v43.28h7.76C683.37,467.62,691.32,438.69,651,438.69ZM522.86,483.56V468.11c.33-30.74,53.07-28.76,53.07,6.53C575.93,510.37,525.49,510.18,522.86,483.56Zm25.76-45c-30,0-25.76,24.46-25.76,2.8h-7.77V527.9h7.77V500.74c20.26,20.84,60.84,7.73,60.84-26.1C583.7,454.18,567.39,438.55,548.62,438.55Zm-142.4,64.18c-15,0-27.31-12.65-27.31-28.09s12.3-28.1,27.31-28.1,27.32,12.65,27.32,28.1S421.24,502.73,406.22,502.73Zm0-64.18c-19.4,0-35.08,16.63-35.08,36.09s15.7,36.08,35.08,36.08,35.08-16.62,35.08-36.08S425.6,438.55,406.22,438.55Z" transform="translate(-8.08 0)"/><path class="cls-3" d="M803.57,584.38c0,3.42-13.9,17.7-28.9,21.67C782.38,589.15,803.57,579.6,803.57,584.38Zm11.23,16.67c-19.17,22.16-42.46,28.94-42.46,14.09,0-10.5,3.36-2.9,19.23-14.26,4.3-3.07,14.67-12.07,14.67-17.16,0-11.39-43.13,9.3-43.13,32.86,0,23,38.2,4.87,53.91-13.85C819.12,600.2,817.5,598.18,814.8,601.05Zm-46.57-.22c0-1.39-1.89-1.39-2.56-.56-3.81,4.8-23,21.67-29.12,21.67-10.35,0,20.58-39.48,18.79-39.79-5.1-1.69-29.23,28.43-29.23,36.79C726.11,640.65,768.23,604.47,768.23,600.83Zm-10.12-31.46c-1.16,1.94-2.79,6.23-.55,6.23,3.65,0,8.22-8,8.22-11S761.79,562.94,758.11,569.37Zm-21.89-28.78c0,6.76-13.86,25.76-27.9,32.89C714.29,564.57,736.22,530,736.22,540.59Zm-.11-6.12c-6.71,0-12.5,8-33.12,37.57-25.63,36.89-36.4,50.15-36.68,52.35-.17,1,3,1.8,4.11,1.55C688.85,602.09,688,599,703.54,588.5c4.4-3,12.79-7.22,12.79-2.44,0,9.32-25.32,20.71-24.9,32.94.3,4.46,4.41,6.94,8.56,6.94,9.46-.36,40.43-26.34,33.45-26.34-1.89,0-3,3.66-16.11,14-17.64,13.78-25.37,11.25-2.12-15.29,6.22-7.15,8.4-16.83-1-16.83-13.31,0-25,20-9.34-2.67C728.83,568.09,747.76,534.47,736.11,534.47ZM615.85,621.05c-24.45,41.39-44.79,53.29-23.78,25.46C634.37,592.66,626.81,602.63,615.85,621.05Zm15.9.67c-4.61,0-6.07-6.51-5.67-10.89l10.67-16.45C676.29,560.28,648.11,621.72,631.75,621.72Zm50.12-20.78c0-6.87-20.38,22.67-38.23,22.67,22.08-14.19,26.89-58.3-1.78-37.12q2.22-3.45,2.34-3.67c.15-.93-4.94-1.34-5.84-.28q-.61.74-8.39,14.17c-10.84,11.68-64.31,70.58-48.46,70.58,9,0,33.2-38.31,37.9-45.9,8.19-13.31.66-3.52,9.67,3.11C646.39,637.25,681.87,604.92,681.87,600.94Zm-88.8,10.83c-18.3,18.79-30.49,11.51-16.89-8.55,16.54-24.25,39.57-26.26,25.56-2.39C596.48,597,584.21,604.59,593.07,611.77Zm31.68-10.94c0-7.57-13.14,18.17-26.57,10.22,31.33-34.8-6.39-42.25-30.67-6.95-17.32,25.42,5.11,31.92,28.23,9.4C607.66,621.13,624.75,603.3,624.75,600.83Zm-50.91-64.69c-14.69-4.08-38.9,4.89-38.9,22.64,0,19.46,30.37,29.15,7.78,51.4-21.83,21.26-62.58,17.74-67.57,3.68-6.61-18.43,40.44-30.13,59.91-27.15,3.74.54,6.09-1.81.77-2.78-11.94-2.2-34.46-2.2-49,3.22-33.7,12.39-21.6,41.35,15.12,41.35,33.51,0,64.52-26.29,50.45-48.12-5.89-7.75-12.89-15.71-12.89-23.23,0-20.12,36.12-22.68,36.12-15.9,0,4.28-6.35,2.63-5.44,4.89C572.21,550.88,587.68,539.67,573.84,536.14Z" transform="translate(-8.08 0)"/><path class="cls-4" d="M803.57,584.38c0,3.42-13.9,17.7-28.9,21.67C782.38,589.15,803.57,579.6,803.57,584.38Zm11.23,16.67c-19.17,22.16-42.46,28.94-42.46,14.09,0-10.5,3.36-2.9,19.23-14.26,4.3-3.07,14.67-12.07,14.67-17.16,0-11.39-43.13,9.3-43.13,32.86,0,23,38.2,4.87,53.91-13.85C819.12,600.2,817.5,598.18,814.8,601.05Zm-46.57-.22c0-1.39-1.89-1.39-2.56-.56-3.81,4.8-23,21.67-29.12,21.67-10.35,0,20.58-39.48,18.79-39.79-5.1-1.69-29.23,28.43-29.23,36.79C726.11,640.65,768.23,604.47,768.23,600.83Zm-10.12-31.46c-1.16,1.94-2.79,6.23-.55,6.23,3.65,0,8.22-8,8.22-11S761.79,562.94,758.11,569.37Zm-21.89-28.78c0,6.76-13.86,25.76-27.9,32.89C714.29,564.57,736.22,530,736.22,540.59Zm-.11-6.12c-6.71,0-12.5,8-33.12,37.57-25.63,36.89-36.4,50.15-36.68,52.35-.17,1,3,1.8,4.11,1.55C688.85,602.09,688,599,703.54,588.5c4.4-3,12.79-7.22,12.79-2.44,0,9.32-25.32,20.71-24.9,32.94.3,4.46,4.41,6.94,8.56,6.94,9.46-.36,40.43-26.34,33.45-26.34-1.89,0-3,3.66-16.11,14-17.64,13.78-25.37,11.25-2.12-15.29,6.22-7.15,8.4-16.83-1-16.83-13.31,0-25,20-9.34-2.67C728.83,568.09,747.76,534.47,736.11,534.47ZM615.85,621.05c-24.45,41.39-44.79,53.29-23.78,25.46C634.37,592.66,626.81,602.63,615.85,621.05Zm15.9.67c-4.61,0-6.07-6.51-5.67-10.89l10.67-16.45C676.29,560.28,648.11,621.72,631.75,621.72Zm50.12-20.78c0-6.87-20.38,22.67-38.23,22.67,22.08-14.19,26.89-58.3-1.78-37.12q2.22-3.45,2.34-3.67c.15-.93-4.94-1.34-5.84-.28q-.61.74-8.39,14.17c-10.84,11.68-64.31,70.58-48.46,70.58,9,0,33.2-38.31,37.9-45.9,8.19-13.31.66-3.52,9.67,3.11C646.39,637.25,681.87,604.92,681.87,600.94Zm-88.8,10.83c-18.3,18.79-30.49,11.51-16.89-8.55,16.54-24.25,39.57-26.26,25.56-2.39C596.48,597,584.21,604.59,593.07,611.77Zm31.68-10.94c0-7.57-13.14,18.17-26.57,10.22,31.33-34.8-6.39-42.25-30.67-6.95-17.32,25.42,5.11,31.92,28.23,9.4C607.66,621.13,624.75,603.3,624.75,600.83Zm-50.91-64.69c-14.69-4.08-38.9,4.89-38.9,22.64,0,19.46,30.37,29.15,7.78,51.4-21.83,21.26-62.58,17.74-67.57,3.68-6.61-18.43,40.44-30.13,59.91-27.15,3.74.54,6.09-1.81.77-2.78-11.94-2.2-34.46-2.2-49,3.22-33.7,12.39-21.6,41.35,15.12,41.35,33.51,0,64.52-26.29,50.45-48.12-5.89-7.75-12.89-15.71-12.89-23.23,0-20.12,36.12-22.68,36.12-15.9,0,4.28-6.35,2.63-5.44,4.89C572.21,550.88,587.68,539.67,573.84,536.14Z" transform="translate(-8.08 0)"/><path class="cls-3" d="M598.14,118.24C517,95.46,383.35,145.6,383.35,244.83c0,74.52,89,138.06,89,189.91,0,104.8-145.37,181.85-268.18,181.85-164.75,0-220.71-111-55.23-178.46,89.41-37,184.73-45,235-37.16q17.18,2.49,20.87-5c10.37-19.24-182.9-31.9-287.21,7.46C-69.26,473-.91,634.61,201.08,634.61,337.6,634.61,487.51,552.08,500,432c7.21-70.18-91.44-124.64-91.44-196.35C408.51,123.85,608,108.46,608,146.82c0,24.09-35.13,14.59-30.08,27.34C589.07,200.62,674.58,138,598.14,118.24Z" transform="translate(-8.08 0)"/><path class="cls-2" d="M1266.25,566.22c-2.16-.88-3.09-.77-17.23,17.51-7.2,0-7.69-.19-8.8.55s-1.2,1.86.46,1.86c8.73,0,7.6-1.64,1.67,6.39-8,10.53-22.77,29.83-9.72,31.49,6.84.93,25-14.21,29.45-19.64,1.58-1.9-.47-3-1.48-1.66-4.52,5.67-27.83,25.17-25.84,15.28,1.26-7.84,14.52-26.26,18.06-31.86,7.41,0,7.87.21,9-.65s1-1.76-.55-1.76h-6.76C1267.28,565.21,1267,566.53,1266.25,566.22Zm-64.54,45.48c-19.64,20.07-17,3.45-7.61-8.65,3.69-4.74,13.56-14.6,19.54-14.6C1216.69,588.45,1217.3,587.19,1201.71,611.7Zm46.39-59.18c0,9.55-23.7,35.39-29.89,42.17C1224.19,584.69,1248.1,541.82,1248.1,552.52Zm-.76-4.64c-8.42,0-30.46,39.26-30.4,39.16-2.73-2-10.58,1.05-14,2.79-29,15.33-27.59,48.35-3.13,26.87-.49,2.59.09,4.63,1.76,6.11,7.38,6.4,33-17.64,33-19.45,0-1.26-1.25-1.24-1.94-.55-3.54,3.89-18.86,18-24.27,18-4.7,0,2.15-13,4.45-17.14,8.65-9.19,38-39.78,38-52.33C1250.78,549,1249.63,547.88,1247.34,547.88Zm-87.6,52.8c12.44-24.65,32.9-50.42,39.36-49C1206.64,553.56,1176.3,587.64,1159.74,600.68Zm41-53c-15.13,0-71.4,77.24-46.68,77.24,10.15,0,32.14-19,32.14-21.85,0-1.37-1.7-.91-2.69.27-18.75,20.15-36.75,25.88-25.65,1.21C1173.26,594.92,1215.82,547.7,1200.77,547.7ZM1140,589.47c0,2.89-11.66,14.77-24.08,18.06C1122.35,593.45,1140,585.49,1140,589.47Zm9.36,13.9c-14.47,16.71-35.38,25.12-35.38,11.74,0-8.73,2.87-2.47,16-11.89,3.65-2.6,12.22-10.08,12.22-14.3,0-9.49-35.93,7.75-35.93,27.39,0,19.13,31.78,4.12,44.92-11.55C1153,602.66,1151.63,601,1149.37,603.37ZM1097,591.05c0,4.11-8.35,14.29-11.21,17.22C1084.56,597.07,1097,586.33,1097,591.05Zm11.39,11.67c-6.41,7-17.53,16.73-21.77,8.24,6-6.16,19.82-24.55,12.14-24.55-7.45,0-18.27,13.39-15.29,24.09-13.64,12.92-29.45,18.46-9.44-14.55,4.67-7.64,5.8-8.41,3.61-8.61-3.72,0-34.35,35.48-13.89,36.68,6.29.36,15.75-6.35,20.84-11.12,3.57,5.67,11,3.83,16.81-.65C1114.27,602.39,1109.61,601.41,1108.43,602.72Zm-72.8,11.94c-6.67,10.85-14.45,6.8-13,.84,1.65-3.3,6.53-2,4.73-6.86,2.34-2.16,11.58-11,11.48-10.93A27.54,27.54,0,0,1,1035.63,614.66Zm26.3-11.39c0-3.9-4.08,3-17.13,12.78-7.49,5.61-.93,1.74-.93-6.3a43.79,43.79,0,0,0-1.2-9c-1.72-8.44-.84-4.38,3.38-10.37,5.13-7.29-3.5-10.3-6.16.37-.75,3,.14,3.32-14.26,16.39-6-.88-9.86,14.7,1.11,17C1039.54,627.05,1061.93,604.79,1061.93,603.27Zm-59.83,9c-15.25,15.66-25.4,9.59-14.07-7.13,13.82-20.26,32.93-21.81,21.3-2C1005,600,994.72,606.32,1002.1,612.3Zm26.4-9.12c0-6.33-10.91,15.16-22.14,8.52,26.18-29.08-5.38-35.14-25.56-5.79-14.36,21.08,4.18,26.67,23.53,7.83C1014.27,620.11,1028.5,605.21,1028.5,603.18Zm-73.08,9.12c-15.25,15.66-25.4,9.59-14.07-7.13,13.82-20.26,32.93-21.81,21.3-2C958.27,600,948.07,606.34,955.42,612.3Zm26.4-9.12c0-6.33-10.91,15.16-22.13,8.52,26.07-29-5.32-35.25-25.57-5.79-14.36,21.08,4.18,26.67,23.53,7.83C967.41,620,981.82,605.42,981.82,603.18ZM844.28,617.9c-45.82,5.49-10.6-57.77,30.66-13A59.52,59.52,0,0,1,844.28,617.9Zm86.14-65.56c0,6.14-10,20.4-27.51,23.52C918.8,548.54,930.42,547,930.42,552.34Zm-.74-5.1c-11.28,0-25.29,19.93-31.68,29.17-5.36.19-7.69-.59-7.69,1.34,0,1.66,6.12,1.07,6,1.07-6.3,9.31-11.23,17.4-19.26,24.36-7.22-7.22-13.89-13.64-24.36-15.84a32.45,32.45,0,0,0-23.25,3.89c-29.44,18.4,7.6,55,49.18,17.78,29.45,31.82,46.31,8.36,44,8-.74-.16-17.11,12.73-41.77-10,9-8.73,14.39-17.77,20.65-28.62C926.14,574.77,941.35,547.24,929.68,547.24Z" transform="translate(-8.08 0)"/><path class="cls-5" d="M1266.25,566.22c-2.16-.88-3.09-.77-17.23,17.51-7.2,0-7.69-.19-8.8.55s-1.2,1.86.46,1.86c8.73,0,7.6-1.64,1.67,6.39-8,10.53-22.77,29.83-9.72,31.49,6.84.93,25-14.21,29.45-19.64,1.58-1.9-.47-3-1.48-1.66-4.52,5.67-27.83,25.17-25.84,15.28,1.26-7.84,14.52-26.26,18.06-31.86,7.41,0,7.87.21,9-.65s1-1.76-.55-1.76h-6.76C1267.28,565.21,1267,566.53,1266.25,566.22Zm-64.54,45.48c-19.64,20.07-17,3.45-7.61-8.65,3.69-4.74,13.56-14.6,19.54-14.6C1216.69,588.45,1217.3,587.19,1201.71,611.7Zm46.39-59.18c0,9.55-23.7,35.39-29.89,42.17C1224.19,584.69,1248.1,541.82,1248.1,552.52Zm-.76-4.64c-8.42,0-30.46,39.26-30.4,39.16-2.73-2-10.58,1.05-14,2.79-29,15.33-27.59,48.35-3.13,26.87-.49,2.59.09,4.63,1.76,6.11,7.38,6.4,33-17.64,33-19.45,0-1.26-1.25-1.24-1.94-.55-3.54,3.89-18.86,18-24.27,18-4.7,0,2.15-13,4.45-17.14,8.65-9.19,38-39.78,38-52.33C1250.78,549,1249.63,547.88,1247.34,547.88Zm-87.6,52.8c12.44-24.65,32.9-50.42,39.36-49C1206.64,553.56,1176.3,587.64,1159.74,600.68Zm41-53c-15.13,0-71.4,77.24-46.68,77.24,10.15,0,32.14-19,32.14-21.85,0-1.37-1.7-.91-2.69.27-18.75,20.15-36.75,25.88-25.65,1.21C1173.26,594.92,1215.82,547.7,1200.77,547.7ZM1140,589.47c0,2.89-11.66,14.77-24.08,18.06C1122.35,593.45,1140,585.49,1140,589.47Zm9.36,13.9c-14.47,16.71-35.38,25.12-35.38,11.74,0-8.73,2.87-2.47,16-11.89,3.65-2.6,12.22-10.08,12.22-14.3,0-9.49-35.93,7.75-35.93,27.39,0,19.13,31.78,4.12,44.92-11.55C1153,602.66,1151.63,601,1149.37,603.37ZM1097,591.05c0,4.11-8.35,14.29-11.21,17.22C1084.56,597.07,1097,586.33,1097,591.05Zm11.39,11.67c-6.41,7-17.53,16.73-21.77,8.24,6-6.16,19.82-24.55,12.14-24.55-7.45,0-18.27,13.39-15.29,24.09-13.64,12.92-29.45,18.46-9.44-14.55,4.67-7.64,5.8-8.41,3.61-8.61-3.72,0-34.35,35.48-13.89,36.68,6.29.36,15.75-6.35,20.84-11.12,3.57,5.67,11,3.83,16.81-.65C1114.27,602.39,1109.61,601.41,1108.43,602.72Zm-72.8,11.94c-6.67,10.85-14.45,6.8-13,.84,1.65-3.3,6.53-2,4.73-6.86,2.34-2.16,11.58-11,11.48-10.93A27.54,27.54,0,0,1,1035.63,614.66Zm26.3-11.39c0-3.9-4.08,3-17.13,12.78-7.49,5.61-.93,1.74-.93-6.3a43.79,43.79,0,0,0-1.2-9c-1.72-8.44-.84-4.38,3.38-10.37,5.13-7.29-3.5-10.3-6.16.37-.75,3,.14,3.32-14.26,16.39-6-.88-9.86,14.7,1.11,17C1039.54,627.05,1061.93,604.79,1061.93,603.27Zm-59.83,9c-15.25,15.66-25.4,9.59-14.07-7.13,13.82-20.26,32.93-21.81,21.3-2C1005,600,994.72,606.32,1002.1,612.3Zm26.4-9.12c0-6.33-10.91,15.16-22.14,8.52,26.18-29.08-5.38-35.14-25.56-5.79-14.36,21.08,4.18,26.67,23.53,7.83C1014.27,620.11,1028.5,605.21,1028.5,603.18Zm-73.08,9.12c-15.25,15.66-25.4,9.59-14.07-7.13,13.82-20.26,32.93-21.81,21.3-2C958.27,600,948.07,606.34,955.42,612.3Zm26.4-9.12c0-6.33-10.91,15.16-22.13,8.52,26.07-29-5.32-35.25-25.57-5.79-14.36,21.08,4.18,26.67,23.53,7.83C967.41,620,981.82,605.42,981.82,603.18ZM844.28,617.9c-45.82,5.49-10.6-57.77,30.66-13A59.52,59.52,0,0,1,844.28,617.9Zm86.14-65.56c0,6.14-10,20.4-27.51,23.52C918.8,548.54,930.42,547,930.42,552.34Zm-.74-5.1c-11.28,0-25.29,19.93-31.68,29.17-5.36.19-7.69-.59-7.69,1.34,0,1.66,6.12,1.07,6,1.07-6.3,9.31-11.23,17.4-19.26,24.36-7.22-7.22-13.89-13.64-24.36-15.84a32.45,32.45,0,0,0-23.25,3.89c-29.44,18.4,7.6,55,49.18,17.78,29.45,31.82,46.31,8.36,44,8-.74-.16-17.11,12.73-41.77-10,9-8.73,14.39-17.77,20.65-28.62C926.14,574.77,941.35,547.24,929.68,547.24Z" transform="translate(-8.08 0)"/></svg>